<svg aria-roledescription="er" viewBox="0 0 192 849" style="max-width: 100px; left: 0px; top: 0px;" xmlns="http://www.w3.org/2000/svg" width="600" id="mermaid-svg" height="600"> height="undefined"><style>#mermaid-svg{font-family:"trebuchet ms",verdana,arial,sans-serif;font-size:16px;fill:#333;}#mermaid-svg .error-icon{fill:#552222;}#mermaid-svg .error-text{fill:#552222;stroke:#552222;}#mermaid-svg .edge-thickness-normal{stroke-width:2px;}#mermaid-svg .edge-thickness-thick{stroke-width:3.5px;}#mermaid-svg .edge-pattern-solid{stroke-dasharray:0;}#mermaid-svg .edge-pattern-dashed{stroke-dasharray:3;}#mermaid-svg .edge-pattern-dotted{stroke-dasharray:2;}#mermaid-svg .marker{fill:#333333;stroke:#333333;}#mermaid-svg .marker.cross{stroke:#333333;}#mermaid-svg svg{font-family:"trebuchet ms",verdana,arial,sans-serif;font-size:16px;}#mermaid-svg .entityBox{fill:#ECECFF;stroke:#9370DB;}#mermaid-svg .attributeBoxOdd{fill:#ffffff;stroke:#9370DB;}#mermaid-svg .attributeBoxEven{fill:#f2f2f2;stroke:#9370DB;}#mermaid-svg .relationshipLabelBox{fill:hsl(80, 100%, 96.2745098039%);opacity:0.7;background-color:hsl(80, 100%, 96.2745098039%);}#mermaid-svg .relationshipLabelBox rect{opacity:0.5;}#mermaid-svg .relationshipLine{stroke:#333333;}#mermaid-svg .entityTitleText{text-anchor:middle;font-size:18px;fill:#333;}#mermaid-svg :root{--mermaid-font-family:"trebuchet ms",verdana,arial,sans-serif;}</style><g></g><defs><marker orient="auto" markerHeight="18" markerWidth="18" refY="9" refX="0" id="ONLY_ONE_START"><path d="M9,0 L9,18 M15,0 L15,18" fill="none" stroke="gray"></path></marker></defs><defs><marker orient="auto" markerHeight="18" markerWidth="18" refY="9" refX="18" id="ONLY_ONE_END"><path d="M3,0 L3,18 M9,0 L9,18" fill="none" stroke="gray"></path></marker></defs><defs><marker orient="auto" markerHeight="18" markerWidth="30" refY="9" refX="0" id="ZERO_OR_ONE_START"><circle r="6" cy="9" cx="21" fill="white" stroke="gray"></circle><path d="M9,0 L9,18" fill="none" stroke="gray"></path></marker></defs><defs><marker orient="auto" markerHeight="18" markerWidth="30" refY="9" refX="30" id="ZERO_OR_ONE_END"><circle r="6" cy="9" cx="9" fill="white" stroke="gray"></circle><path d="M21,0 L21,18" fill="none" stroke="gray"></path></marker></defs><defs><marker orient="auto" markerHeight="36" markerWidth="45" refY="18" refX="18" id="ONE_OR_MORE_START"><path d="M0,18 Q 18,0 36,18 Q 18,36 0,18 M42,9 L42,27" fill="none" stroke="gray"></path></marker></defs><defs><marker orient="auto" markerHeight="36" markerWidth="45" refY="18" refX="27" id="ONE_OR_MORE_END"><path d="M3,9 L3,27 M9,18 Q27,0 45,18 Q27,36 9,18" fill="none" stroke="gray"></path></marker></defs><defs><marker orient="auto" markerHeight="36" markerWidth="57" refY="18" refX="18" id="ZERO_OR_MORE_START"><circle r="6" cy="18" cx="48" fill="white" stroke="gray"></circle><path d="M0,18 Q18,0 36,18 Q18,36 0,18" fill="none" stroke="gray"></path></marker></defs><defs><marker orient="auto" markerHeight="36" markerWidth="57" refY="18" refX="39" id="ZERO_OR_MORE_END"><circle r="6" cy="18" cx="9" fill="white" stroke="gray"></circle><path d="M21,18 Q39,0 57,18 Q39,36 21,18" fill="none" stroke="gray"></path></marker></defs><path style="stroke: gray; fill: none;" marker-start="url(#ZERO_OR_MORE_START)" marker-end="url(#ZERO_OR_ONE_END)" d="M96,501L96,509.3333333333333C96,517.6666666666666,96,534.3333333333334,96,551C96,567.6666666666666,96,584.3333333333334,96,592.6666666666666L96,601" class="er relationshipLine"></path><path style="stroke: gray; fill: none;" marker-start="url(#ZERO_OR_MORE_START)" marker-end="url(#ZERO_OR_ONE_END)" d="M96,248L96,256.3333333333333C96,264.6666666666667,96,281.3333333333333,96,298C96,314.6666666666667,96,331.3333333333333,96,339.6666666666667L96,348" class="er relationshipLine"></path><g transform="translate(28.5,601 )" id="entity-users-4750c781-602c-4047-8d6a-a0dbebfd8516"><rect height="228" width="135" y="0" x="0" class="er entityBox"></rect><text style="dominant-baseline: middle; text-anchor: middle; font-size: 12px;" transform="translate(67.5,14)" y="0" x="0" id="text-entity-users-4750c781-602c-4047-8d6a-a0dbebfd8516" class="er entityLabel">users</text><rect height="25" width="52" y="28" x="0" class="er attributeBoxOdd"></rect><text style="dominant-baseline: middle; font-size: 10.2px;" transform="translate(5,40.5)" y="0" x="0" id="text-entity-users-4750c781-602c-4047-8d6a-a0dbebfd8516-attr-1-type" class="er entityLabel">String</text><rect height="25" width="83" y="28" x="52" class="er attributeBoxOdd"></rect><text style="dominant-baseline: middle; font-size: 10.2px;" transform="translate(57,40.5)" y="0" x="0" id="text-entity-users-4750c781-602c-4047-8d6a-a0dbebfd8516-attr-1-name" class="er entityLabel">use_uuid</text><rect height="25" width="52" y="53" x="0" class="er attributeBoxEven"></rect><text style="dominant-baseline: middle; font-size: 10.2px;" transform="translate(5,65.5)" y="0" x="0" id="text-entity-users-4750c781-602c-4047-8d6a-a0dbebfd8516-attr-2-type" class="er entityLabel">String</text><rect height="25" width="83" y="53" x="52" class="er attributeBoxEven"></rect><text style="dominant-baseline: middle; font-size: 10.2px;" transform="translate(57,65.5)" y="0" x="0" id="text-entity-users-4750c781-602c-4047-8d6a-a0dbebfd8516-attr-2-name" class="er entityLabel">use_email</text><rect height="25" width="52" y="78" x="0" class="er attributeBoxOdd"></rect><text style="dominant-baseline: middle; font-size: 10.2px;" transform="translate(5,90.5)" y="0" x="0" id="text-entity-users-4750c781-602c-4047-8d6a-a0dbebfd8516-attr-3-type" class="er entityLabel">String</text><rect height="25" width="83" y="78" x="52" class="er attributeBoxOdd"></rect><text style="dominant-baseline: middle; font-size: 10.2px;" transform="translate(57,90.5)" y="0" x="0" id="text-entity-users-4750c781-602c-4047-8d6a-a0dbebfd8516-attr-3-name" class="er entityLabel">use_password</text><rect height="25" width="52" y="103" x="0" class="er attributeBoxEven"></rect><text style="dominant-baseline: middle; font-size: 10.2px;" transform="translate(5,115.5)" y="0" x="0" id="text-entity-users-4750c781-602c-4047-8d6a-a0dbebfd8516-attr-4-type" class="er entityLabel">DateTime</text><rect height="25" width="83" y="103" x="52" class="er attributeBoxEven"></rect><text style="dominant-baseline: middle; font-size: 10.2px;" transform="translate(57,115.5)" y="0" x="0" id="text-entity-users-4750c781-602c-4047-8d6a-a0dbebfd8516-attr-4-name" class="er entityLabel">use_created_at</text><rect height="25" width="52" y="128" x="0" class="er attributeBoxOdd"></rect><text style="dominant-baseline: middle; font-size: 10.2px;" transform="translate(5,140.5)" y="0" x="0" id="text-entity-users-4750c781-602c-4047-8d6a-a0dbebfd8516-attr-5-type" class="er entityLabel">DateTime</text><rect height="25" width="83" y="128" x="52" class="er attributeBoxOdd"></rect><text style="dominant-baseline: middle; font-size: 10.2px;" transform="translate(57,140.5)" y="0" x="0" id="text-entity-users-4750c781-602c-4047-8d6a-a0dbebfd8516-attr-5-name" class="er entityLabel">use_updated_at</text><rect height="25" width="52" y="153" x="0" class="er attributeBoxEven"></rect><text style="dominant-baseline: middle; font-size: 10.2px;" transform="translate(5,165.5)" y="0" x="0" id="text-entity-users-4750c781-602c-4047-8d6a-a0dbebfd8516-attr-6-type" class="er entityLabel">String</text><rect height="25" width="83" y="153" x="52" class="er attributeBoxEven"></rect><text style="dominant-baseline: middle; font-size: 10.2px;" transform="translate(57,165.5)" y="0" x="0" id="text-entity-users-4750c781-602c-4047-8d6a-a0dbebfd8516-attr-6-name" class="er entityLabel">use_name</text><rect height="25" width="52" y="178" x="0" class="er attributeBoxOdd"></rect><text style="dominant-baseline: middle; font-size: 10.2px;" transform="translate(5,190.5)" y="0" x="0" id="text-entity-users-4750c781-602c-4047-8d6a-a0dbebfd8516-attr-7-type" class="er entityLabel">DateTime</text><rect height="25" width="83" y="178" x="52" class="er attributeBoxOdd"></rect><text style="dominant-baseline: middle; font-size: 10.2px;" transform="translate(57,190.5)" y="0" x="0" id="text-entity-users-4750c781-602c-4047-8d6a-a0dbebfd8516-attr-7-name" class="er entityLabel">use_date_expire</text><rect height="25" width="52" y="203" x="0" class="er attributeBoxEven"></rect><text style="dominant-baseline: middle; font-size: 10.2px;" transform="translate(5,215.5)" y="0" x="0" id="text-entity-users-4750c781-602c-4047-8d6a-a0dbebfd8516-attr-8-type" class="er entityLabel">String</text><rect height="25" width="83" y="203" x="52" class="er attributeBoxEven"></rect><text style="dominant-baseline: middle; font-size: 10.2px;" transform="translate(57,215.5)" y="0" x="0" id="text-entity-users-4750c781-602c-4047-8d6a-a0dbebfd8516-attr-8-name" class="er entityLabel">use_token</text></g><g transform="translate(20,348 )" id="entity-project-ab347efe-67e2-4707-9d23-e9d758b38f9c"><rect height="153" width="152" y="0" x="0" class="er entityBox"></rect><text style="dominant-baseline: middle; text-anchor: middle; font-size: 12px;" transform="translate(76,14)" y="0" x="0" id="text-entity-project-ab347efe-67e2-4707-9d23-e9d758b38f9c" class="er entityLabel">project</text><rect height="25" width="52" y="28" x="0" class="er attributeBoxOdd"></rect><text style="dominant-baseline: middle; font-size: 10.2px;" transform="translate(5,40.5)" y="0" x="0" id="text-entity-project-ab347efe-67e2-4707-9d23-e9d758b38f9c-attr-1-type" class="er entityLabel">String</text><rect height="25" width="100" y="28" x="52" class="er attributeBoxOdd"></rect><text style="dominant-baseline: middle; font-size: 10.2px;" transform="translate(57,40.5)" y="0" x="0" id="text-entity-project-ab347efe-67e2-4707-9d23-e9d758b38f9c-attr-1-name" class="er entityLabel">project_uuid</text><rect height="25" width="52" y="53" x="0" class="er attributeBoxEven"></rect><text style="dominant-baseline: middle; font-size: 10.2px;" transform="translate(5,65.5)" y="0" x="0" id="text-entity-project-ab347efe-67e2-4707-9d23-e9d758b38f9c-attr-2-type" class="er entityLabel">String</text><rect height="25" width="100" y="53" x="52" class="er attributeBoxEven"></rect><text style="dominant-baseline: middle; font-size: 10.2px;" transform="translate(57,65.5)" y="0" x="0" id="text-entity-project-ab347efe-67e2-4707-9d23-e9d758b38f9c-attr-2-name" class="er entityLabel">project_name</text><rect height="25" width="52" y="78" x="0" class="er attributeBoxOdd"></rect><text style="dominant-baseline: middle; font-size: 10.2px;" transform="translate(5,90.5)" y="0" x="0" id="text-entity-project-ab347efe-67e2-4707-9d23-e9d758b38f9c-attr-3-type" class="er entityLabel">String</text><rect height="25" width="100" y="78" x="52" class="er attributeBoxOdd"></rect><text style="dominant-baseline: middle; font-size: 10.2px;" transform="translate(57,90.5)" y="0" x="0" id="text-entity-project-ab347efe-67e2-4707-9d23-e9d758b38f9c-attr-3-name" class="er entityLabel">project_description</text><rect height="25" width="52" y="103" x="0" class="er attributeBoxEven"></rect><text style="dominant-baseline: middle; font-size: 10.2px;" transform="translate(5,115.5)" y="0" x="0" id="text-entity-project-ab347efe-67e2-4707-9d23-e9d758b38f9c-attr-4-type" class="er entityLabel">DateTime</text><rect height="25" width="100" y="103" x="52" class="er attributeBoxEven"></rect><text style="dominant-baseline: middle; font-size: 10.2px;" transform="translate(57,115.5)" y="0" x="0" id="text-entity-project-ab347efe-67e2-4707-9d23-e9d758b38f9c-attr-4-name" class="er entityLabel">project_created_at</text><rect height="25" width="52" y="128" x="0" class="er attributeBoxOdd"></rect><text style="dominant-baseline: middle; font-size: 10.2px;" transform="translate(5,140.5)" y="0" x="0" id="text-entity-project-ab347efe-67e2-4707-9d23-e9d758b38f9c-attr-5-type" class="er entityLabel">DateTime</text><rect height="25" width="100" y="128" x="52" class="er attributeBoxOdd"></rect><text style="dominant-baseline: middle; font-size: 10.2px;" transform="translate(57,140.5)" y="0" x="0" id="text-entity-project-ab347efe-67e2-4707-9d23-e9d758b38f9c-attr-5-name" class="er entityLabel">project_updated_at</text></g><g transform="translate(22,20 )" id="entity-task-24b01e80-5ba7-41a5-9ac5-4c74ae24f7e5"><rect height="228" width="148" y="0" x="0" class="er entityBox"></rect><text style="dominant-baseline: middle; text-anchor: middle; font-size: 12px;" transform="translate(74,14)" y="0" x="0" id="text-entity-task-24b01e80-5ba7-41a5-9ac5-4c74ae24f7e5" class="er entityLabel">task</text><rect height="25" width="52" y="28" x="0" class="er attributeBoxOdd"></rect><text style="dominant-baseline: middle; font-size: 10.2px;" transform="translate(5,40.5)" y="0" x="0" id="text-entity-task-24b01e80-5ba7-41a5-9ac5-4c74ae24f7e5-attr-1-type" class="er entityLabel">String</text><rect height="25" width="96" y="28" x="52" class="er attributeBoxOdd"></rect><text style="dominant-baseline: middle; font-size: 10.2px;" transform="translate(57,40.5)" y="0" x="0" id="text-entity-task-24b01e80-5ba7-41a5-9ac5-4c74ae24f7e5-attr-1-name" class="er entityLabel">task_uuid</text><rect height="25" width="52" y="53" x="0" class="er attributeBoxEven"></rect><text style="dominant-baseline: middle; font-size: 10.2px;" transform="translate(5,65.5)" y="0" x="0" id="text-entity-task-24b01e80-5ba7-41a5-9ac5-4c74ae24f7e5-attr-2-type" class="er entityLabel">String</text><rect height="25" width="96" y="53" x="52" class="er attributeBoxEven"></rect><text style="dominant-baseline: middle; font-size: 10.2px;" transform="translate(57,65.5)" y="0" x="0" id="text-entity-task-24b01e80-5ba7-41a5-9ac5-4c74ae24f7e5-attr-2-name" class="er entityLabel">task_title</text><rect height="25" width="52" y="78" x="0" class="er attributeBoxOdd"></rect><text style="dominant-baseline: middle; font-size: 10.2px;" transform="translate(5,90.5)" y="0" x="0" id="text-entity-task-24b01e80-5ba7-41a5-9ac5-4c74ae24f7e5-attr-3-type" class="er entityLabel">String</text><rect height="25" width="96" y="78" x="52" class="er attributeBoxOdd"></rect><text style="dominant-baseline: middle; font-size: 10.2px;" transform="translate(57,90.5)" y="0" x="0" id="text-entity-task-24b01e80-5ba7-41a5-9ac5-4c74ae24f7e5-attr-3-name" class="er entityLabel">task_description</text><rect height="25" width="52" y="103" x="0" class="er attributeBoxEven"></rect><text style="dominant-baseline: middle; font-size: 10.2px;" transform="translate(5,115.5)" y="0" x="0" id="text-entity-task-24b01e80-5ba7-41a5-9ac5-4c74ae24f7e5-attr-4-type" class="er entityLabel">String</text><rect height="25" width="96" y="103" x="52" class="er attributeBoxEven"></rect><text style="dominant-baseline: middle; font-size: 10.2px;" transform="translate(57,115.5)" y="0" x="0" id="text-entity-task-24b01e80-5ba7-41a5-9ac5-4c74ae24f7e5-attr-4-name" class="er entityLabel">task_date_conclude</text><rect height="25" width="52" y="128" x="0" class="er attributeBoxOdd"></rect><text style="dominant-baseline: middle; font-size: 10.2px;" transform="translate(5,140.5)" y="0" x="0" id="text-entity-task-24b01e80-5ba7-41a5-9ac5-4c74ae24f7e5-attr-5-type" class="er entityLabel">Boolean</text><rect height="25" width="96" y="128" x="52" class="er attributeBoxOdd"></rect><text style="dominant-baseline: middle; font-size: 10.2px;" transform="translate(57,140.5)" y="0" x="0" id="text-entity-task-24b01e80-5ba7-41a5-9ac5-4c74ae24f7e5-attr-5-name" class="er entityLabel">task_concluded</text><rect height="25" width="52" y="153" x="0" class="er attributeBoxEven"></rect><text style="dominant-baseline: middle; font-size: 10.2px;" transform="translate(5,165.5)" y="0" x="0" id="text-entity-task-24b01e80-5ba7-41a5-9ac5-4c74ae24f7e5-attr-6-type" class="er entityLabel">Boolean</text><rect height="25" width="96" y="153" x="52" class="er attributeBoxEven"></rect><text style="dominant-baseline: middle; font-size: 10.2px;" transform="translate(57,165.5)" y="0" x="0" id="text-entity-task-24b01e80-5ba7-41a5-9ac5-4c74ae24f7e5-attr-6-name" class="er entityLabel">task_excluded</text><rect height="25" width="52" y="178" x="0" class="er attributeBoxOdd"></rect><text style="dominant-baseline: middle; font-size: 10.2px;" transform="translate(5,190.5)" y="0" x="0" id="text-entity-task-24b01e80-5ba7-41a5-9ac5-4c74ae24f7e5-attr-7-type" class="er entityLabel">DateTime</text><rect height="25" width="96" y="178" x="52" class="er attributeBoxOdd"></rect><text style="dominant-baseline: middle; font-size: 10.2px;" transform="translate(57,190.5)" y="0" x="0" id="text-entity-task-24b01e80-5ba7-41a5-9ac5-4c74ae24f7e5-attr-7-name" class="er entityLabel">task_created_at</text><rect height="25" width="52" y="203" x="0" class="er attributeBoxEven"></rect><text style="dominant-baseline: middle; font-size: 10.2px;" transform="translate(5,215.5)" y="0" x="0" id="text-entity-task-24b01e80-5ba7-41a5-9ac5-4c74ae24f7e5-attr-8-type" class="er entityLabel">DateTime</text><rect height="25" width="96" y="203" x="52" class="er attributeBoxEven"></rect><text style="dominant-baseline: middle; font-size: 10.2px;" transform="translate(57,215.5)" y="0" x="0" id="text-entity-task-24b01e80-5ba7-41a5-9ac5-4c74ae24f7e5-attr-8-name" class="er entityLabel">task_updated_at</text></g><rect height="18" width="24" y="542" x="84" class="er relationshipLabelBox"></rect><text style="text-anchor: middle; dominant-baseline: middle; font-size: 12px;" y="551" x="96" id="rel1" class="er relationshipLabel">user</text><rect height="18" width="42" y="289" x="75" class="er relationshipLabelBox"></rect><text style="text-anchor: middle; dominant-baseline: middle; font-size: 12px;" y="298" x="96" id="rel2" class="er relationshipLabel">project</text></svg>